<?xml version="1.0" encoding="utf-8"?>
<!-- Generator: Adobe Illustrator 24.0.3, SVG Export Plug-In . SVG Version: 6.00 Build 0)  -->
<svg version="1.1" id="Layer_1" xmlns="http://www.w3.org/2000/svg" xmlns:xlink="http://www.w3.org/1999/xlink" x="0px" y="0px"
	 viewBox="0 0 206.66 206.66" style="enable-background:new 0 0 206.66 206.66;" xml:space="preserve">
<style type="text/css">
	.st0{fill:#FFDD15;}
	.st1{fill:#F9EC31;}
	.st2{fill:#EC1C24;}
	.st3{fill:#F05A28;}
	.st4{fill:#FAAF40;}
	.st5{fill:#F6921E;}
	.st6{fill:#1B75BB;}
	.st7{fill:#2B388F;}
	.st8{fill:#D6DE23;}
	.st9{fill:#8BC53F;}
	.st10{fill:#652D90;}
	.st11{fill:#9E1F63;}
	.st12{fill:#EC297B;}
	.st13{fill:#D91C5C;}
	.st14{fill:#26A9E0;}
	.st15{fill:#009345;}
</style>
<g>
	<path class="st0" d="M47.67,102.32l-47.65-0.86c-0.1,5.33,0.21,10.58,0.9,15.71c1.12,8.21,3.22,16.24,6.23,23.91l44.37-17.42
		C48.87,116.93,47.54,109.68,47.67,102.32z"/>
	<path class="st1" d="M51.52,123.67L7.15,141.08c1.2,3.07,2.55,6.07,4.04,9.01c0.01,0.02,0.01,0.03,0.02,0.05
		c0.62,1.23,1.28,2.43,1.95,3.64c0.17,0.3,0.33,0.62,0.51,0.92c0.52,0.9,1.06,1.78,1.6,2.66c0.37,0.6,0.73,1.21,1.11,1.79
		c0.37,0.57,0.76,1.13,1.13,1.7c0.59,0.88,1.17,1.76,1.79,2.61c0.19,0.27,0.4,0.53,0.59,0.8c2.78,3.8,5.8,7.41,9.06,10.8l34.3-33.09
		C58.14,136.66,54.17,130.43,51.52,123.67z"/>
	<path class="st2" d="M104.33,47.67l0.86-47.65c-5.33-0.1-10.58,0.21-15.71,0.9c-8.21,1.12-16.24,3.22-23.91,6.23l17.42,44.37
		C89.73,48.87,96.98,47.54,104.33,47.67z"/>
	<path class="st3" d="M82.99,51.52L65.57,7.15c-4.37,1.72-8.62,3.74-12.73,6.04c-0.29,0.16-0.59,0.32-0.87,0.48
		c-0.91,0.52-1.81,1.08-2.7,1.62c-0.59,0.36-1.18,0.71-1.76,1.08c-0.58,0.38-1.15,0.77-1.73,1.16c-0.87,0.58-1.73,1.16-2.58,1.77
		c-0.28,0.2-0.55,0.41-0.82,0.61c-1.12,0.82-2.23,1.65-3.32,2.51c0,0,0,0-0.01,0c-2.59,2.06-5.07,4.24-7.45,6.53l33.09,34.3
		C69.99,58.14,76.23,54.17,82.99,51.52z"/>
	<path class="st4" d="M52.31,81.07L8.62,62.02c-1.42,3.25-2.65,6.53-3.71,9.83c-0.03,0.11-0.06,0.22-0.1,0.32
		c-0.46,1.46-0.89,2.93-1.29,4.4c-0.15,0.55-0.28,1.12-0.42,1.67c-0.25,1.02-0.51,2.04-0.73,3.06c-0.22,1.03-0.42,2.06-0.61,3.1
		c-0.11,0.56-0.22,1.12-0.32,1.69c-0.25,1.5-0.47,3.02-0.66,4.55c-0.01,0.11-0.03,0.21-0.04,0.33c-0.41,3.44-0.65,6.94-0.72,10.49
		l47.65,0.86C47.79,95.21,49.29,88,52.31,81.07z"/>
	<path class="st5" d="M52.31,81.07c3.01-6.91,7.26-12.89,12.37-17.81l-33.09-34.3c-5.93,5.72-11.18,12.15-15.61,19.14
		c-2.77,4.38-5.23,9.02-7.36,13.91L52.31,81.07L52.31,81.07z"/>
	<path class="st6" d="M141.97,143.4l33.09,34.3c5.93-5.72,11.18-12.15,15.62-19.15c2.76-4.38,5.23-9.02,7.36-13.91l-43.69-19.06
		C151.33,132.49,147.08,138.47,141.97,143.4z"/>
	<path class="st7" d="M154.35,125.58L154.35,125.58l43.69,19.06c1.42-3.25,2.65-6.53,3.71-9.83c0.04-0.12,0.07-0.23,0.11-0.35
		c0.46-1.46,0.89-2.92,1.28-4.38c0.15-0.56,0.28-1.12,0.42-1.68c0.26-1.02,0.51-2.03,0.73-3.05c0.22-1.03,0.42-2.07,0.61-3.11
		c0.11-0.56,0.22-1.12,0.31-1.68c0.25-1.51,0.47-3.02,0.66-4.55c0.02-0.11,0.03-0.22,0.05-0.33c0.41-3.45,0.65-6.95,0.72-10.49
		l-47.65-0.86C158.86,111.45,157.37,118.65,154.35,125.58z"/>
	<path class="st8" d="M63.26,141.98l-34.3,33.09c5.72,5.93,12.14,11.18,19.14,15.62c4.38,2.76,9.02,5.23,13.91,7.36l19.06-43.69
		C74.16,151.33,68.18,147.08,63.26,141.98z"/>
	<path class="st9" d="M81.07,154.35L81.07,154.35l-19.06,43.69h0c3.25,1.42,6.53,2.65,9.83,3.71c0.11,0.04,0.23,0.07,0.34,0.1
		c1.46,0.46,2.92,0.89,4.39,1.29c0.56,0.15,1.13,0.28,1.7,0.42c1.01,0.25,2.02,0.5,3.04,0.73c1.04,0.22,2.08,0.42,3.13,0.62
		c0.55,0.1,1.1,0.21,1.66,0.31c1.52,0.25,3.04,0.48,4.58,0.66c0.1,0.01,0.2,0.03,0.29,0.04c3.45,0.41,6.95,0.65,10.5,0.72
		l0.86-47.65C95.21,158.86,88,157.37,81.07,154.35z"/>
	<path class="st10" d="M158.99,104.33l47.65,0.86c0.1-5.34-0.21-10.59-0.9-15.72c-1.12-8.21-3.21-16.23-6.22-23.91l-44.37,17.42
		C157.79,89.73,159.12,96.98,158.99,104.33z"/>
	<path class="st11" d="M155.14,82.99l44.37-17.42c-1.21-3.07-2.56-6.08-4.05-9.03c0-0.01-0.01-0.01-0.01-0.02
		c-0.63-1.23-1.29-2.45-1.97-3.66c-0.17-0.3-0.33-0.6-0.49-0.9c-0.52-0.91-1.07-1.8-1.62-2.69c-0.36-0.59-0.71-1.18-1.08-1.76
		c-0.38-0.59-0.78-1.17-1.17-1.75c-0.58-0.86-1.15-1.72-1.75-2.56c-0.21-0.29-0.43-0.57-0.63-0.86c-0.81-1.11-1.63-2.21-2.48-3.28
		c-0.02-0.02-0.03-0.04-0.05-0.06c-2.05-2.57-4.21-5.04-6.5-7.41l-34.3,33.09C148.52,69.99,152.49,76.23,155.14,82.99z"/>
	<path class="st12" d="M125.58,52.31l19.06-43.69c-3.25-1.41-6.53-2.65-9.83-3.71c-0.11-0.04-0.22-0.07-0.34-0.1
		c-1.46-0.47-2.92-0.89-4.39-1.29c-0.56-0.15-1.13-0.28-1.69-0.42c-1.01-0.25-2.03-0.5-3.04-0.73c-1.03-0.22-2.08-0.42-3.12-0.61
		c-0.55-0.11-1.11-0.22-1.66-0.31c-1.51-0.25-3.04-0.48-4.57-0.67c-0.1-0.02-0.2-0.03-0.3-0.04c-3.45-0.41-6.95-0.66-10.5-0.72l0,0
		l-0.86,47.65C111.44,47.79,118.65,49.29,125.58,52.31z"/>
	<path class="st13" d="M125.58,52.31L125.58,52.31c6.91,3.01,12.89,7.26,17.81,12.37l34.3-33.09c-5.72-5.93-12.14-11.17-19.14-15.61
		c-4.38-2.76-9.03-5.23-13.92-7.36v0L125.58,52.31z"/>
	<path class="st14" d="M123.67,155.14l17.42,44.37c4.38-1.72,8.64-3.75,12.75-6.05c0.28-0.16,0.57-0.31,0.85-0.47
		c0.92-0.53,1.83-1.09,2.73-1.64c0.57-0.36,1.15-0.7,1.72-1.06c0.6-0.38,1.18-0.79,1.77-1.18c0.85-0.57,1.71-1.14,2.55-1.74
		c0.29-0.21,0.57-0.43,0.86-0.64c1.11-0.81,2.21-1.63,3.28-2.48c0.01-0.01,0.03-0.03,0.05-0.04c2.58-2.05,5.05-4.22,7.42-6.5
		l-33.09-34.3C136.66,148.51,130.43,152.49,123.67,155.14z"/>
	<path class="st15" d="M102.32,158.99l-0.86,47.65l0,0c5.33,0.1,10.58-0.22,15.71-0.9c8.21-1.12,16.24-3.22,23.91-6.23l-17.42-44.37
		C116.93,157.79,109.68,159.12,102.32,158.99z"/>
</g>
</svg>
